<?xml version="1.0" encoding="utf-8"?>
<!-- Generator: Adobe Illustrator 23.1.0, SVG Export Plug-In . SVG Version: 6.00 Build 0)  -->
<svg version="1.1" id="Layer_1" xmlns="http://www.w3.org/2000/svg" xmlns:xlink="http://www.w3.org/1999/xlink" x="0px" y="0px"
	 viewBox="0 0 701 226" style="enable-background:new 0 0 701 226;" xml:space="preserve">
<style type="text/css">
	.st0{fill:#FFFFFF;}
</style>
<path className="st0" d="M663.3,0.6v25.6l-61.1,0l0,0h0l-3.5,26.7c3.7-2.4,5.5-3.2,9.9-4.5c5-1.5,10.6-2.4,16.9-2.4
	c7.9,0,15.1,2,21.6,5.9c6.5,3.9,11.7,9.6,15.5,16.9c3.8,7.4,5.7,15.9,5.7,25.6c0,10.6-2.3,19.9-7,28c-4.6,8.1-11,14.3-19.1,18.8
	c-8.1,4.5-16.9,6.7-26.6,6.7c-9.2,0-17.7-1.8-25.7-5.4c-7.9-3.6-14.3-8.8-19.2-15.6c-4.8-6.8-7.4-14.6-7.6-23.5l30.8-0.4
	c1,5.4,3.6,9.6,7.8,12.5c4.2,2.9,9.2,4.4,15,4.4c6.3,0,11.6-2.3,15.8-6.8c4.2-4.5,6.3-10.6,6.3-18.2c0-7.4-2.2-13.3-6.5-17.7
	c-4.3-4.5-9.5-6.7-15.6-6.7c-4.3,0-8.4,1.2-12.5,3.7c-4.1,2.5-7.3,5.7-9.8,9.9l-29.8-0.2l10.2-57.5h0l4.5-25.5H663.3z"/>
<g>
	<path className="st0" d="M141.4,83.8v141.3h-38.8v-7.6c-29.7,15-65.9,7.2-86.8-18.7c-20.9-25.9-20.9-62.9,0-88.8
		c20.9-25.9,57.1-33.7,86.8-18.7v-7.6L141.4,83.8z M70.7,186.2c17.6,0,31.8-14.3,31.8-31.8c0-17.6-14.2-31.8-31.8-31.8
		c-17.6,0-31.8,14.3-31.8,31.8C38.9,172,53.1,186.2,70.7,186.2L70.7,186.2z"/>
	<path className="st0" d="M160.3,225.3V0.6h38.8v224.7H160.3z"/>
	<path className="st0" d="M218.9,42.1v-41h38.8v41H218.9z M218.9,225.1V83.9h38.8v141.1H218.9z"/>
	<path className="st0" d="M423.9,83.7l-58.5,141.4h-42L264.8,83.7h42l37.5,90.6l37.5-90.6H423.9z"/>
	<path className="st0" d="M519.3,173l25.2,29.6c-18.5,15.8-35.4,22.5-56.5,22.5c-22.4,0.3-43.7-9.7-57.8-27.1l0,0
		c-2.7-3.4-5.1-7-7.1-10.8l-0.1-0.1c-2.7-5.1-4.7-10.6-6-16.3l-0.1-0.3c-7.6-32.9,9.1-66.5,39.9-80.3c30.8-13.8,67-4,86.6,23.5h0
		c0.5,0.7,1,1.5,1.5,2.2c0.3,0.5,0.6,1,0.9,1.4c0.6,1,1.2,2,1.8,3c0.2,0.4,0.4,0.8,0.7,1.2c0.7,1.3,1.4,2.7,2,4.1l0,0.1l0.1,0.2
		l0.1,0.2l0,0.1l0.1,0.3l0,0.1l0.1,0.2l0,0.1l0.1,0.3l7.6,18l-39.2,16.2l-5.3,2.2l-43.2,17.8c4.9,3,10.6,4.5,16.4,4.3
		C498.9,185.5,507.9,182.8,519.3,173z M456,149.6l1.4-0.6l23-9.5l24-9.9c-0.2-0.2-0.4-0.4-0.6-0.5c-5.4-4.2-12-6.4-18.8-6.4
		c-3.8,0-7.6,0.8-11,2.3C464,129.4,457.2,138.8,456,149.6L456,149.6z"/>
</g>
<g>
	<path className="st0" d="M672.9,3h-4.3V0h12.3v3h-4.4v13h-3.6V3z"/>
	<path className="st0" d="M696.3,9.9c-0.1-1.9-0.1-4.3-0.1-6.6h-0.1c-0.5,2-1.2,4.3-1.8,6.2l-2,6.3h-2.8l-1.7-6.2
		c-0.5-1.9-1.1-4.2-1.5-6.3h0c-0.1,2.2-0.2,4.6-0.3,6.6l-0.3,6.1h-3.4l1-16h4.8l1.6,5.4c0.5,1.9,1,3.9,1.4,5.7h0.1
		c0.5-1.9,1-4,1.5-5.8l1.7-5.3h4.7l0.9,16h-3.5L696.3,9.9z"/>
</g>
</svg>
